<?xml version="1.0" standalone="no"?>
<!DOCTYPE svg PUBLIC "-//W3C//DTD SVG 20010904//EN"
 "http://www.w3.org/TR/2001/REC-SVG-20010904/DTD/svg10.dtd">
<svg version="1.0" xmlns="http://www.w3.org/2000/svg"
 width="225.000000pt" height="225.000000pt" viewBox="0 0 225.000000 225.000000"
 preserveAspectRatio="xMidYMid meet">
<metadata>
Created by potrace 1.14, written by Peter Selinger 2001-2017
</metadata>
<g transform="translate(0.000000,225.000000) scale(0.100000,-0.100000)"
fill="#000000" stroke="none">
<path d="M1112 1905 c11 -12 -12 -30 -79 -59 -36 -16 -67 -25 -75 -20 -7 4
-10 4 -6 -1 4 -4 1 -14 -7 -22 -12 -12 -18 -12 -42 3 l-28 16 23 -19 24 -19
-25 -17 c-19 -12 -27 -13 -38 -4 -10 10 -11 9 -2 -3 14 -19 -25 -79 -47 -73
-11 3 -12 2 -3 -4 10 -7 10 -16 1 -41 -7 -18 -16 -32 -21 -32 -4 0 -5 -4 -2
-10 3 -5 3 -25 -1 -44 -5 -31 -9 -34 -34 -31 -22 3 -27 0 -23 -12 4 -11 8 -12
13 -3 4 7 13 9 19 5 9 -5 9 -10 0 -21 -6 -7 -16 -11 -22 -7 -5 3 -7 1 -4 -4 4
-6 -7 -22 -25 -36 -25 -21 -35 -24 -52 -16 -19 9 -20 9 -3 -4 17 -14 17 -16
-3 -49 -13 -23 -20 -54 -21 -91 -1 -49 -3 -55 -14 -40 -8 11 -10 22 -5 28 6 7
-5 11 -33 11 l-42 1 0 -41 c0 -45 3 -44 -81 -31 -39 7 -42 5 -58 -25 -15 -31
-14 -34 4 -60 12 -17 40 -35 68 -45 26 -9 56 -20 67 -24 11 -4 34 -7 52 -6 26
2 34 -3 43 -26 18 -42 36 -52 86 -50 32 1 43 -2 38 -10 -4 -7 -3 -9 3 -6 6 4
25 0 42 -9 17 -8 56 -18 86 -21 30 -3 55 -10 55 -14 0 -5 -8 -9 -17 -9 -14 0
-15 -2 -5 -9 11 -7 11 -17 -1 -59 -9 -28 -12 -52 -8 -54 4 -2 2 -16 -6 -33 -9
-18 -12 -22 -10 -9 3 12 1 28 -3 35 -5 7 -7 -25 -4 -71 2 -46 8 -88 14 -94 6
-6 4 -16 -7 -28 -9 -10 -13 -18 -8 -18 4 0 13 7 19 16 10 14 15 13 39 -6 15
-12 27 -31 27 -43 1 -32 22 -55 54 -60 15 -2 32 -10 37 -18 8 -11 9 -10 5 6
-6 23 23 68 31 47 3 -6 9 -10 14 -6 22 13 -3 -71 -26 -89 -6 -5 -4 -7 5 -6 8
1 32 -5 52 -14 48 -22 60 -21 85 3 14 12 19 27 16 40 -4 15 1 26 16 36 11 8
21 24 21 34 0 11 14 46 30 78 17 34 30 75 30 96 0 22 4 35 10 31 6 -3 10 -1
10 4 0 6 -5 11 -11 11 -7 0 -8 7 -4 18 11 23 14 122 5 122 -4 0 -11 12 -15 28
-5 15 -10 34 -12 42 -11 37 -7 54 12 59 11 3 32 14 47 24 15 10 32 16 38 12 6
-4 9 -1 8 7 -2 8 4 12 16 10 11 -2 15 1 11 7 -4 7 4 11 20 11 18 0 24 -4 19
-12 -4 -7 1 -6 12 3 10 9 34 15 52 13 18 -1 31 1 28 4 -7 7 36 38 47 34 5 -1
6 5 3 15 -6 20 3 38 19 38 26 0 131 41 147 57 22 22 46 25 28 3 -18 -22 -3
-18 23 6 16 14 17 18 5 14 -15 -6 -16 -3 -7 29 8 28 6 41 -7 61 -14 22 -22 25
-47 19 -22 -5 -28 -3 -22 6 5 9 4 11 -4 6 -6 -4 -9 -12 -6 -17 4 -5 3 -9 -2
-10 -4 0 -16 -2 -25 -4 -10 -2 -20 1 -24 6 -3 5 1 9 8 9 9 0 9 3 2 8 -6 4 -13
14 -16 23 -4 9 -18 18 -31 21 -17 3 -24 1 -20 -7 5 -16 -41 -67 -52 -57 -5 4
-5 2 -1 -5 8 -15 -2 -21 -63 -37 l-49 -13 -6 28 c-3 15 -24 46 -47 69 -31 31
-39 44 -30 53 6 6 11 15 11 21 0 5 -6 2 -13 -8 -16 -22 -31 -7 -40 42 -6 31 6
45 16 20 3 -8 6 -5 6 5 1 12 -5 18 -16 16 -32 -3 -36 1 -22 18 11 14 11 15 1
9 -11 -7 -13 4 -8 55 3 35 7 82 8 104 3 33 -1 44 -22 62 -14 13 -21 23 -16 23
5 0 17 -6 25 -14 14 -13 16 -12 17 10 1 13 -2 24 -8 24 -5 0 -7 -4 -4 -9 3 -5
-12 -8 -33 -7 -30 2 -47 10 -68 33 -21 23 -42 33 -76 38 -26 4 -45 11 -42 15
3 5 0 12 -7 16 -7 4 -10 4 -6 -1z m143 -157 c23 -10 27 -16 24 -34 0 -4 4 -10
9 -13 5 -3 13 -17 17 -31 7 -23 6 -22 -19 8 -31 36 -64 41 -89 14 -21 -23 -13
-32 25 -32 35 0 71 -17 63 -30 -3 -6 1 -7 9 -4 13 5 16 -1 16 -27 0 -19 5 -52
12 -74 12 -43 12 -74 -3 -90 -5 -5 -9 -1 -9 13 0 12 -9 31 -20 42 -12 12 -18
25 -15 30 4 6 -2 10 -11 10 -10 0 -33 14 -51 32 -32 31 -58 33 -33 3 10 -12
10 -19 2 -27 -7 -7 -12 -8 -12 -3 0 6 -5 3 -10 -5 -9 -13 -11 -13 -19 0 -7 10
-5 21 7 35 17 20 17 20 -4 3 -11 -10 -33 -18 -47 -18 -24 0 -26 2 -15 19 9 14
16 17 24 10 10 -8 12 -4 9 18 -2 15 -4 31 -4 34 -1 10 -41 18 -41 9 0 -5 8
-13 18 -19 14 -8 11 -10 -14 -9 -37 1 -50 -6 -65 -35 -12 -22 -12 -22 10 -3
17 16 21 16 21 4 0 -9 7 -21 16 -29 13 -11 12 -14 -13 -25 l-28 -13 35 6 c19
3 39 10 44 14 6 5 16 9 24 9 12 0 12 -3 2 -15 -7 -8 -21 -15 -32 -15 -27 0
-67 -29 -84 -61 -8 -16 -18 -29 -23 -29 -12 0 -22 142 -10 156 7 8 7 14 0 18
-17 11 -2 89 21 109 17 14 23 15 36 5 10 -8 13 -8 9 -2 -23 39 152 72 218 42z
m-40 -307 c-11 -10 -63 -15 -110 -11 l-30 2 30 8 c44 11 121 12 110 1z m0 -91
c-29 -32 -125 -22 -125 12 0 9 3 9 12 0 19 -19 105 -15 112 4 4 9 9 14 13 10
3 -3 -2 -15 -12 -26z m464 -21 c-21 -12 -24 -2 -8 28 14 26 14 26 17 3 2 -12
-2 -26 -9 -31z m137 2 c-6 -10 -66 -33 -66 -26 0 3 15 11 33 19 40 18 39 18
33 7z m-136 -38 c0 -15 -6 -23 -17 -24 -17 -1 -17 -2 0 -6 9 -2 15 -10 11 -16
-3 -7 4 -1 15 12 23 26 27 16 9 -24 -12 -27 -28 -31 -58 -15 -13 7 -21 6 -30
-5 -10 -13 -14 -13 -27 0 -20 20 -13 48 15 60 12 5 22 16 22 23 0 7 5 10 10 7
6 -3 10 -2 10 4 0 5 9 9 20 8 14 -1 20 -8 20 -24z m60 -23 c0 -16 -4 -30 -10
-30 -5 0 -10 14 -10 30 0 17 5 30 10 30 6 0 10 -13 10 -30z m80 25 c0 -2 -13
-11 -30 -20 -16 -9 -30 -11 -30 -6 0 7 22 19 58 30 1 1 2 -1 2 -4z m-1237 -47
c7 -25 3 -33 -12 -23 -13 8 -15 45 -2 45 5 0 11 -10 14 -22z m961 -25 c-4 -27
-9 -51 -13 -55 -3 -4 -26 -10 -50 -14 l-44 -7 6 34 c6 33 -3 21 -17 -23 -6
-21 -44 -24 -70 -5 -11 8 -19 28 -21 50 -2 36 -1 37 34 37 20 1 61 7 91 15 90
22 91 22 84 -32z m-231 6 c-8 -8 -16 -8 -30 0 -16 9 -14 10 12 11 21 0 26 -3
18 -11z m-692 -19 c10 -6 19 -17 19 -25 0 -7 5 -17 12 -21 7 -4 8 -3 4 4 -8
14 3 15 22 3 8 -5 12 -21 10 -37 -2 -21 -9 -30 -25 -32 -13 -2 -23 2 -23 8 0
7 -7 5 -16 -5 -17 -16 -53 -12 -66 9 -13 18 -9 58 4 50 7 -4 8 -3 4 4 -4 7 -2
12 5 12 7 0 9 3 6 7 -6 6 10 33 20 33 2 0 13 -5 24 -10z m327 -7 c0 -5 2 -16
6 -25 23 -51 -46 -98 -155 -106 l-69 -5 0 37 c0 21 -5 46 -10 57 -10 18 -7 19
52 20 49 1 158 18 176 28 1 0 1 -2 0 -6z m-493 -13 c13 -6 15 -9 5 -9 -8 0
-22 4 -30 9 -18 12 -2 12 25 0z m40 -10 c3 -5 1 -10 -4 -10 -6 0 -11 5 -11 10
0 6 2 10 4 10 3 0 8 -4 11 -10z m45 -31 c0 -10 -6 -19 -12 -19 -9 0 -8 -4 2
-10 9 -6 10 -10 3 -10 -18 0 -26 18 -19 46 7 28 26 23 26 -7z m-57 1 c9 0 17
-5 17 -10 0 -11 -45 -3 -70 12 -11 7 -8 8 10 4 14 -3 33 -6 43 -6z m796 -36
c9 -9 13 -175 5 -173 -5 2 -21 -4 -37 -11 -33 -16 -36 -13 -44 35 -4 26 -2 40
8 46 11 7 11 9 -3 9 -24 0 -25 72 -2 95 15 15 58 14 73 -1z m45 -248 c9 -27
14 -51 12 -53 -2 -3 -7 4 -10 15 -6 18 -9 18 -44 6 -20 -7 -49 -13 -64 -14
-21 0 -25 4 -21 20 3 12 17 27 32 34 14 8 35 24 45 35 23 26 28 21 50 -43z
m-217 -306 c-7 -17 -13 -26 -15 -21 -3 10 15 51 22 51 3 0 -1 -14 -7 -30z"/>
<path d="M1015 1674 c-33 -33 -36 -39 -21 -49 8 -7 14 -15 11 -18 -3 -4 -2 -4
2 -1 4 3 8 13 8 22 0 9 6 16 13 15 6 -2 12 1 12 6 0 5 15 9 33 8 28 -2 32 1
32 23 0 20 -6 26 -27 28 -19 2 -36 -6 -63 -34z"/>
<path d="M1198 1624 c-16 -8 -28 -17 -28 -20 0 -3 4 -3 9 0 5 3 12 -1 15 -10
4 -9 13 -14 22 -10 8 3 13 2 10 -3 -8 -12 21 -34 34 -26 5 3 10 13 10 22 0 13
2 13 16 2 14 -12 16 -11 13 6 -5 24 -62 33 -85 14 -8 -6 -14 -7 -14 -1 0 5 10
17 23 25 28 20 11 21 -25 1z"/>
<path d="M580 1156 c0 -19 45 -23 56 -4 4 6 3 8 -4 4 -5 -3 -13 0 -15 6 -4 10
-6 9 -6 -1 -1 -11 -4 -11 -16 -1 -12 10 -15 10 -15 -4z"/>
<path d="M810 1750 c6 -11 13 -20 16 -20 2 0 0 9 -6 20 -6 11 -13 20 -16 20
-2 0 0 -9 6 -20z"/>
<path d="M1480 1705 c0 -8 5 -15 10 -15 6 0 10 7 10 15 0 8 -4 15 -10 15 -5 0
-10 -7 -10 -15z"/>
<path d="M1631 1464 c0 -11 3 -14 6 -6 3 7 2 16 -1 19 -3 4 -6 -2 -5 -13z"/>
<path d="M1600 1451 c0 -13 39 -35 48 -27 3 3 0 6 -6 6 -6 0 -18 7 -26 16 -9
8 -16 11 -16 5z"/>
<path d="M1670 1440 c-16 -10 -4 -30 18 -29 15 1 15 2 -1 6 -9 2 -15 8 -12 13
3 5 12 7 20 3 8 -3 15 -3 15 0 0 10 -27 15 -40 7z"/>
<path d="M1431 1424 c0 -11 3 -14 6 -6 3 7 2 16 -1 19 -3 4 -6 -2 -5 -13z"/>
<path d="M1603 1393 c-3 -10 -8 -22 -11 -27 -3 -5 0 -6 5 -3 11 7 25 47 17 47
-3 0 -7 -8 -11 -17z"/>
<path d="M1508 1364 c-12 -11 4 -43 19 -37 13 5 13 7 -1 15 -9 5 -14 13 -11
19 7 10 2 12 -7 3z"/>
<path d="M1548 1313 c7 -3 16 -2 19 1 4 3 -2 6 -13 5 -11 0 -14 -3 -6 -6z"/>
<path d="M477 1261 c-3 -13 -1 -18 9 -14 7 2 10 11 7 19 -7 19 -10 18 -16 -5z"/>
<path d="M428 1263 c6 -2 18 -2 25 0 6 3 1 5 -13 5 -14 0 -19 -2 -12 -5z"/>
<path d="M1645 1140 c3 -5 8 -10 11 -10 2 0 4 5 4 10 0 6 -5 10 -11 10 -5 0
-7 -4 -4 -10z"/>
<path d="M1682 1142 c-8 -6 -2 -9 18 -9 20 0 26 3 18 9 -7 4 -15 8 -18 8 -3 0
-11 -4 -18 -8z"/>
<path d="M1654 1111 c5 -8 56 -3 56 5 0 2 -14 4 -31 4 -16 0 -28 -4 -25 -9z"/>
<path d="M1609 1083 c-13 -16 -12 -17 4 -4 16 13 21 21 13 21 -2 0 -10 -8 -17
-17z"/>
<path d="M1548 1053 c7 -3 16 -2 19 1 4 3 -2 6 -13 5 -11 0 -14 -3 -6 -6z"/>
<path d="M1420 1010 c-9 -6 -10 -10 -3 -10 6 0 15 5 18 10 8 12 4 12 -15 0z"/>
<path d="M1400 980 c-8 -5 -10 -10 -5 -10 6 0 17 5 25 10 8 5 11 10 5 10 -5 0
-17 -5 -25 -10z"/>
<path d="M600 970 c0 -6 7 -10 15 -10 8 0 15 2 15 4 0 2 -7 6 -15 10 -8 3 -15
1 -15 -4z"/>
<path d="M720 953 c0 -19 18 -25 37 -13 17 11 16 11 -1 5 -11 -3 -23 0 -28 7
-5 9 -8 10 -8 1z"/>
<path d="M1330 956 c0 -2 8 -10 18 -17 15 -13 16 -12 3 4 -13 16 -21 21 -21
13z"/>
<path d="M768 913 c7 -3 16 -2 19 1 4 3 -2 6 -13 5 -11 0 -14 -3 -6 -6z"/>
<path d="M1346 912 c-2 -4 -1 -14 4 -22 7 -11 9 -9 7 8 -1 24 -3 26 -11 14z"/>
<path d="M848 903 c7 -3 16 -2 19 1 4 3 -2 6 -13 5 -11 0 -14 -3 -6 -6z"/>
<path d="M605 889 c-4 -6 -5 -13 -2 -16 7 -7 27 6 27 18 0 12 -17 12 -25 -2z"/>
<path d="M1630 816 c0 -10 28 -13 41 -5 10 6 7 9 -13 9 -16 0 -28 -2 -28 -4z"/>
<path d="M732 620 c-7 -11 -8 -20 -3 -20 9 0 24 30 18 36 -1 2 -8 -6 -15 -16z"/>
<path d="M1310 511 c0 -5 9 -11 21 -14 16 -4 18 -3 8 9 -13 16 -29 19 -29 5z"/>
<path d="M1250 451 c0 -10 19 -25 25 -20 1 2 -3 10 -11 17 -8 7 -14 8 -14 3z"/>
<path d="M1250 400 c-6 -11 -8 -20 -6 -20 3 0 10 9 16 20 6 11 8 20 6 20 -3 0
-10 -9 -16 -20z"/>
</g>
</svg>
